{
  "asset": {
    "generator": "Khronos glTF Blender I/O v1.4.40",
    "version": "2.0"
  },
  "scene": 0,
  "scenes": [
    {
      "name": "Scene",
      "nodes": [
        0,
        1,
        2,
        3,
        4
      ]
    }
  ],
  "nodes": [
    {
      "mesh": 0,
      "name": "Table ",
      "scale": [
        1,
        0.05000000074505806,
        0.5
      ],
      "translation": [
        0,
        -0.3310474753379822,
        0
      ]
    },
    {
      "mesh": 1,
      "name": "Table leg 1",
      "scale": [
        0.029999999329447746,
        0.75,
        0.029999999329447746
      ],
      "translation": [
        0.8679549694061279,
        -1.1329421997070312,
        0.41783395409584045
      ]
    },
    {
      "mesh": 2,
      "name": "Table leg 2",
      "scale": [
        0.029999999329447746,
        0.75,
        0.029999999329447746
      ],
      "translation": [
        0.8679549694061279,
        -1.1329421997070312,
        -0.4246712625026703
      ]
    },
    {
      "mesh": 3,
      "name": "Table leg  4",
      "scale": [
        0.029999999329447746,
        0.75,
        0.029999999329447746
      ],
      "translation": [
        -0.8685246706008911,
        -1.1329421997070312,
        0.41783395409584045
      ]
    },
    {
      "mesh": 4,
      "name": "Table leg 3",
      "scale": [
        0.029999999329447746,
        0.75,
        0.029999999329447746
      ],
      "translation": [
        -0.8685246706008911,
        -1.1329421997070312,
        -0.4246712625026703
      ]
    }
  ],
  "materials": [
    {
      "doubleSided": true,
      "name": "wire_229166215",
      "pbrMetallicRoughness": {
        "baseColorFactor": [
          0.651374896449826,
          0.651374896449826,
          0.651374896449826,
          1
        ],
        "metallicFactor": 0,
        "roughnessFactor": 0.68
      }
    },
    {
      "doubleSided": true,
      "name": "Material.006",
      "pbrMetallicRoughness": {
        "baseColorFactor": [
          0,
          0,
          0,
          1
        ],
        "metallicFactor": 0
      }
    }
  ],
  "meshes": [
    {
      "name": "Cube.001",
      "primitives": [
        {
          "attributes": {
            "POSITION": 0,
            "NORMAL": 1,
            "TEXCOORD_0": 2
          },
          "indices": 3,
          "material": 0
        }
      ]
    },
    {
      "name": "Cube.002",
      "primitives": [
        {
          "attributes": {
            "POSITION": 4,
            "NORMAL": 5,
            "TEXCOORD_0": 6
          },
          "indices": 3,
          "material": 1
        }
      ]
    },
    {
      "name": "Cube.008",
      "primitives": [
        {
          "attributes": {
            "POSITION": 7,
            "NORMAL": 8,
            "TEXCOORD_0": 9
          },
          "indices": 3,
          "material": 1
        }
      ]
    },
    {
      "name": "Cube.010",
      "primitives": [
        {
          "attributes": {
            "POSITION": 10,
            "NORMAL": 11,
            "TEXCOORD_0": 12
          },
          "indices": 3,
          "material": 1
        }
      ]
    },
    {
      "name": "Cube.009",
      "primitives": [
        {
          "attributes": {
            "POSITION": 13,
            "NORMAL": 14,
            "TEXCOORD_0": 15
          },
          "indices": 3,
          "material": 1
        }
      ]
    }
  ],
  "accessors": [
    {
      "bufferView": 0,
      "componentType": 5126,
      "count": 24,
      "max": [
        1,
        1,
        1
      ],
      "min": [
        -1,
        -1,
        -1
      ],
      "type": "VEC3"
    },
    {
      "bufferView": 1,
      "componentType": 5126,
      "count": 24,
      "type": "VEC3"
    },
    {
      "bufferView": 2,
      "componentType": 5126,
      "count": 24,
      "type": "VEC2"
    },
    {
      "bufferView": 3,
      "componentType": 5123,
      "count": 36,
      "type": "SCALAR"
    },
    {
      "bufferView": 4,
      "componentType": 5126,
      "count": 24,
      "max": [
        1,
        1,
        1
      ],
      "min": [
        -1,
        -1,
        -1
      ],
      "type": "VEC3"
    },
    {
      "bufferView": 5,
      "componentType": 5126,
      "count": 24,
      "type": "VEC3"
    },
    {
      "bufferView": 6,
      "componentType": 5126,
      "count": 24,
      "type": "VEC2"
    },
    {
      "bufferView": 7,
      "componentType": 5126,
      "count": 24,
      "max": [
        1,
        1,
        1
      ],
      "min": [
        -1,
        -1,
        -1
      ],
      "type": "VEC3"
    },
    {
      "bufferView": 8,
      "componentType": 5126,
      "count": 24,
      "type": "VEC3"
    },
    {
      "bufferView": 9,
      "componentType": 5126,
      "count": 24,
      "type": "VEC2"
    },
    {
      "bufferView": 10,
      "componentType": 5126,
      "count": 24,
      "max": [
        1,
        1,
        1
      ],
      "min": [
        -1,
        -1,
        -1
      ],
      "type": "VEC3"
    },
    {
      "bufferView": 11,
      "componentType": 5126,
      "count": 24,
      "type": "VEC3"
    },
    {
      "bufferView": 12,
      "componentType": 5126,
      "count": 24,
      "type": "VEC2"
    },
    {
      "bufferView": 13,
      "componentType": 5126,
      "count": 24,
      "max": [
        1,
        1,
        1
      ],
      "min": [
        -1,
        -1,
        -1
      ],
      "type": "VEC3"
    },
    {
      "bufferView": 14,
      "componentType": 5126,
      "count": 24,
      "type": "VEC3"
    },
    {
      "bufferView": 15,
      "componentType": 5126,
      "count": 24,
      "type": "VEC2"
    }
  ],
  "bufferViews": [
    {
      "buffer": 0,
      "byteLength": 288,
      "byteOffset": 0
    },
    {
      "buffer": 0,
      "byteLength": 288,
      "byteOffset": 288
    },
    {
      "buffer": 0,
      "byteLength": 192,
      "byteOffset": 576
    },
    {
      "buffer": 0,
      "byteLength": 72,
      "byteOffset": 768
    },
    {
      "buffer": 0,
      "byteLength": 288,
      "byteOffset": 840
    },
    {
      "buffer": 0,
      "byteLength": 288,
      "byteOffset": 1128
    },
    {
      "buffer": 0,
      "byteLength": 192,
      "byteOffset": 1416
    },
    {
      "buffer": 0,
      "byteLength": 288,
      "byteOffset": 1608
    },
    {
      "buffer": 0,
      "byteLength": 288,
      "byteOffset": 1896
    },
    {
      "buffer": 0,
      "byteLength": 192,
      "byteOffset": 2184
    },
    {
      "buffer": 0,
      "byteLength": 288,
      "byteOffset": 2376
    },
    {
      "buffer": 0,
      "byteLength": 288,
      "byteOffset": 2664
    },
    {
      "buffer": 0,
      "byteLength": 192,
      "byteOffset": 2952
    },
    {
      "buffer": 0,
      "byteLength": 288,
      "byteOffset": 3144
    },
    {
      "buffer": 0,
      "byteLength": 288,
      "byteOffset": 3432
    },
    {
      "buffer": 0,
      "byteLength": 192,
      "byteOffset": 3720
    }
  ],
  "buffers": [
    {
      "uri": "table-white-black_data.bin",
      "byteLength": 3912
    }
  ]
}