<?xml version="1.0" encoding="utf-8"?>
<!-- Generator: Adobe Illustrator 21.0.2, SVG Export Plug-In . SVG Version: 6.00 Build 0)  -->
<svg version="1.1" id="Ebene_1" xmlns="http://www.w3.org/2000/svg" xmlns:xlink="http://www.w3.org/1999/xlink" x="0px" y="0px"
	 viewBox="0 0 283.6700134 76.2300034" style="enable-background:new 0 0 283.6700134 76.2300034;" xml:space="preserve">
<style type="text/css">
	.st0{fill:#77AA11;}
	.st1{fill:none;stroke:#74AF27;stroke-width:0.071;stroke-miterlimit:3.8640001;}
	.st2{fill:#171514;}
</style>
<path class="st0" d="M209.5781555,59.2345924c-1.3652039-1.7812996-3.2998047-3.9863014-5.4638977-6.5321999
	c-7.3368988-8.6299019-9.7441101-11.7294998-12.6865082-23.3614006c4.9736023-1.8369007,13.0918121,0.2646961,19.0830078,2.7862015
	c-2.121109-15.1231003,6.3593903-25.6016006,11.7929993-30.2432003c0,0,8.4658051,11.1543007,9.6728058,23.2118988
	c3.445282-6.7645988,12.0234833-24.2616997,36.2695923-24.5585995c0,0,10.0566101,20.3778992-17.4248047,40.419899
	c5.9627991-1.857399,18.773407-5.0887985,32.3066101,0.5879021c-4.6367188,14.0615959-14.7783203,16.3915939-29.2217102,18.2802963
	c5.8486938,3.6044998,8.2686157,9.2421989,8.6817017,15.1494026c-4.656311-0.5498047-12.5332031-1.5596008-16.9609985-3.5820007
	c-13.6503906-6.2343979-22.2832031-14.6669998-37.1239929,4.282196l-3.342804-3.3524933
	c15.4736938-15.675808,27.5888977-9.5635033,35.8291016-5.5713043c8.2148895,3.9785004,13.5497894,4.5742035,17.226593,5.4355011
	c-6.3612976-13.7938995-16.6972961-14.8563995-16.6972961-14.8563995s25.1777954,4.3778992,36.0440063-12.9990005
	c-15.3721008-5.3066978-25.5742035-1.1954002-37.6338043,1.7236023
	c32.5438995-23.4336014,24.9091949-40.5839996,24.9091949-40.5839996
	c-19.506897,1.3525-27.9561005,17.3691998-36.1739044,31.5645008c2.6026001-9.4610004-2.5166016-22.8155003-6.3602905-28.7852001
	c-4.2403107,3.5801001-11.0653992,14.424799-7.8594055,28.0185986l1.7266083,4.9375
	c-5.5098114-4.7734985-12.7373047-8.5253983-19.4912109-8.1133003c1.4794006,8.1611023,7.2723999,14.6621017,10.246109,18.9160004
	c2.2567902,2.5586014,3.9541016,4.2793007,5.8377991,5.8563995L209.5781555,59.2345924z"/>
<path class="st1" d="M209.5781555,59.2345924c-1.3652039-1.7812996-3.2998047-3.9863014-5.4638977-6.5321999
	c-7.3368988-8.6299019-9.7441101-11.7294998-12.6865082-23.3614006c4.9736023-1.8369007,13.0918121,0.2646961,19.0830078,2.7862015
	c-2.121109-15.1231003,6.3593903-25.6016006,11.7929993-30.2432003c0,0,8.4658051,11.1543007,9.6728058,23.2118988
	c3.445282-6.7645988,12.0234833-24.2616997,36.2695923-24.5585995c0,0,10.0566101,20.3778992-17.4248047,40.419899
	c5.9627991-1.857399,18.773407-5.0887985,32.3066101,0.5879021c-4.6367188,14.0615959-14.7783203,16.3915939-29.2217102,18.2802963
	c5.8486938,3.6044998,8.2686157,9.2421989,8.6817017,15.1494026c-4.656311-0.5498047-12.5332031-1.5596008-16.9609985-3.5820007
	c-13.6503906-6.2343979-22.2832031-14.6669998-37.1239929,4.282196l-3.342804-3.3524933
	c15.4736938-15.675808,27.5888977-9.5635033,35.8291016-5.5713043c8.2148895,3.9785004,13.5497894,4.5742035,17.226593,5.4355011
	c-6.3612976-13.7938995-16.6972961-14.8563995-16.6972961-14.8563995s25.1777954,4.3778992,36.0440063-12.9990005
	c-15.3721008-5.3066978-25.5742035-1.1954002-37.6338043,1.7236023
	c32.5438995-23.4336014,24.9091949-40.5839996,24.9091949-40.5839996
	c-19.506897,1.3525-27.9561005,17.3691998-36.1739044,31.5645008c2.6026001-9.4610004-2.5166016-22.8155003-6.3602905-28.7852001
	c-4.2403107,3.5801001-11.0653992,14.424799-7.8594055,28.0185986l1.7266083,4.9375
	c-5.5098114-4.7734985-12.7373047-8.5253983-19.4912109-8.1133003c1.4794006,8.1611023,7.2723999,14.6621017,10.246109,18.9160004
	c2.2567902,2.5586014,3.9541016,4.2793007,5.8377991,5.8563995L209.5781555,59.2345924z"/>
<path class="st2" d="M178.5752563,59.3214912c0-2.0243988-1.5821075-3.6708984-3.6083984-3.6708984
	c-2.0254059,0-3.6094055,1.6464996-3.6094055,3.6708984c0,2.0264015,1.5839996,3.6102982,3.6094055,3.6102982
	C176.9931488,62.9317894,178.5752563,61.3478928,178.5752563,59.3214912 M162.0537567,62.171093v-1.2021027
	c-2.0899048,0-3.7353973-0.6348-4.4317017-2.1534004c-0.3164062-0.6327972-0.5068054-3.9237976-0.5068054-5.759697V38.2423935
	c0-4.875-2.3417969-8.1680012-7.4706879-8.1680012c-3.4179993,0-8.2295074,3.8622952-11.0146027,5.7616978l0.1268921-6.4579983
	c-2.5957031,1.5195961-5.5077972,2.7227001-8.4198914,3.4834003v0.9492989
	c0.8856964,0.1893997,1.7723999,0.5693016,2.468689,1.2021027c1.7089996,1.5819969,1.7089996,8.7362976,1.7089996,11.2040977
	c0,2.5331993-0.0625,12.5985985-1.7723999,13.9286957c-0.7597961,0.5694046-1.5195923,0.7598038-2.4052887,0.8233032v1.2021027
	h13.2313995v-1.2021027c-2.089798,0-3.7353058-0.6348-4.4316101-2.1534004
	c-0.316391-0.6327972-0.4433899-3.9237976-0.4433899-5.759697V37.8614922
	c1.8359985-1.6455002,6.0146942-4.1142006,8.4833984-4.1142006c2.9120941,0,4.6210938,2.0262985,5.253891,3.9248009
	c0.5703125,1.7723999,0.5703125,6.2040977,0.5703125,8.544899c0,2.5331993-0.0634003,12.5985985-1.7723999,13.9286957
	c-0.7608032,0.5694046-1.5205078,0.7598038-2.406311,0.8233032v1.2021027H162.0537567z M125.1465607,34.5694923
	c0-2.2783012-1.0762024-4.5585995-3.6719055-4.5585995c-2.9120941,0-7.7237015,4.1142979-9.6865005,5.5712986l0.1268997-6.2040997
	c-2.5967026,1.5195961-5.5077972,2.7227001-8.419899,3.4834003v0.9492989
	c0.8867035,0.1893997,1.7724075,0.5693016,2.4686966,1.2021027c1.7089996,1.5819969,1.7089996,8.7362976,1.7089996,11.2040977
	c0,2.5331993-0.0625,12.5985985-1.7723999,13.9286957c-0.7597961,0.5694046-1.5185928,0.7598038-2.4052963,0.8233032v1.2021027
	h14.0547028v-1.2021027c-2.4052963,0-4.3682022-0.6348-5.1924057-2.1534004
	c-0.3153992-0.6327972-0.5058899-4.1777-0.5058899-6.0145988V37.6720924
	c1.9628906-1.4561005,4.9384918-3.6719017,6.5839996-3.6719017c1.8359985,0,1.9628906,1.7733994,1.9628906,2.5312996
	c0,0.4443016,0.3163986,0.8877029,0.7598038,0.8877029c0.2518997,0,2.0243988-0.5704002,2.3426971-0.6963005
	C124.7031555,36.3429909,125.1465607,35.8360901,125.1465607,34.5694923 M92.7978592,49.7628899
	c0,5.7616997-1.9638062,10.8262024-8.5469055,10.8262024c-8.0400009,0-10.9510956-11.5224991-10.9510956-17.9169998
	c0-4.8740005,3.1640015-10.2549019,8.5458984-10.2549019C89.6953583,32.4171906,92.7978592,43.4962921,92.7978592,49.7628899
	 M97.4179535,46.2169914c0-8.9883041-4.5575943-16.1425991-14.3700943-16.1425991
	c-8.2929001,0-14.3711014,8.3565006-14.3711014,16.1425991c0,8.8008003,4.5586014,16.714798,14.3711014,16.714798
	C92.2910538,62.9317894,97.4179535,54.7013931,97.4179535,46.2169914 M64.0576553,62.171093v-1.2021027
	c-2.0898972,0-3.7362976-0.6348-4.4316978-2.1534004c-0.3163986-0.6327972-0.5068016-3.9237976-0.5068016-5.759697V38.2423935
	c0-4.875-2.2793007-8.1680012-7.8505974-8.1680012c-3.6719017,0-8.6094017,3.8622952-11.2675972,5.7616978V21.5929928
	c0-1.2665997,0.1259995-4.6231003,0.1259995-6.3955002c-2.5957031,1.5205002-5.5713005,2.6591949-8.4824009,3.419899v0.9492016
	c0.8856983,0.1903992,1.772501,0.5692997,2.4677982,1.2021999c2.1523018,2.0887985,1.7723999,15.6376972,1.7723999,18.9276981
	c0,6.9639015,0,17.6621017-1.3290977,19.9434013c-0.5693016,0.9491997-1.4550018,1.3290977-2.8486004,1.3290977v1.2021027
	h13.2313976v-1.2021027c-2.0898018,0-3.7988014-0.6348-4.4959984-2.1534004
	c-0.3154984-0.6327972-0.4414978-3.9237976-0.4414978-5.759697V37.8614922
	c2.1523972-1.7098999,6.0771942-4.1142006,8.7988968-4.1142006c3.6083984,0,5.1288986,1.9629021,5.6347008,3.9248009
	c0.5058975,1.8348999,0.569397,6.2040977,0.569397,8.544899c0,2.5331993-0.0634995,12.5985985-1.7724991,13.9286957
	c-0.7598,0.5694046-1.5195007,0.7598038-2.4053001,0.8233032v1.2021027H64.0576553z M18.0966587,56.6007919
	c-2.0877991,1.5820007-5.0633993,3.2919998-7.9764996,3.2919998c-3.6083999,0-5.0009995-2.1533012-5.0009995-4.8125
	c0-4.6836052,4.5595999-6.8993988,10.1288996-7.6591988l2.8485994-0.3799019V56.6007919z M27.8466587,60.0196877
	l-0.5067997-1.0126953c-0.8232002,0.3798981-1.7089996,0.6963005-2.5956993,0.6963005
	c-0.6328011,0-1.012701-0.2539024-1.3915997-0.6963005c-1.1415997-1.3935013-1.1415997-10.0039024-1.1415997-12.7900009
	c0-3.0381012,0.2538986-5.4434013,0.2538986-8.4813995c0-4.8125-2.785099-7.6611996-7.5331993-7.6611996
	c-1.8359003,0-4.0508003,1.1396999-5.6348,1.8360004c-2.0878005,0.8876991-7.0898004,2.5331993-7.0898004,5.4452934
	c0,0.5693054,0.1904001,2.7207069,0.9492002,2.7207069c0.6327999,0,2.5321999-0.6944008,3.1651001-0.8858032
	c0.3182998-0.1269035,0.9510999-0.3789024,0.9510999-0.822197c0-0.6963005-0.1904001-1.2041016-0.3174-1.9619026
	c-0.2519002-2.0898972,3.2295003-3.3564987,4.9384999-3.3564987c4.6211004,0,6.2030993,2.3428001,6.2030993,7.4706955v4.6211052
	c-4.1786995,0.4423981-13.6102991,2.152401-16.2049999,5.5078011c-1.0782001,1.3925972-1.3936,3.2284966-1.3936,5.506897
	c0,4.7490005,3.8604,6.7752991,6.5205002,6.7752991c5.1269999,0,7.5966997-1.9627991,11.2685995-4.1795998
	c0.2539005,1.267498,1.5820007,4.1795998,3.1025009,4.1795998C22.4013596,62.9317894,26.897459,60.5255928,27.8466587,60.0196877"/>
</svg>
