<?xml version="1.0" encoding="utf-8"?>
<!-- Generator: Adobe Illustrator 19.2.1, SVG Export Plug-In . SVG Version: 6.00 Build 0)  -->
<svg version="1.1" id="layer" xmlns="http://www.w3.org/2000/svg" xmlns:xlink="http://www.w3.org/1999/xlink" x="0px" y="0px"
	 viewBox="0 0 652 652" style="enable-background:new 0 0 652 652;" xml:space="preserve">
<g>
	<path d="M123,352.4c-9.5-11-24.2-16.5-44-16.5c-20.3,0-36.1,6.4-47.6,19.1c-11.3,12.5-16.9,29.7-16.9,51.7
		c0,24.4,6.8,42.6,20.4,54.5c10.2,9.1,23.5,13.7,39.8,13.7c17.7,0,31-5.5,39.9-16.6l3,13.4h18.3v-70.2H86.7v20.8H108v6.1
		c0,6.8-2.9,12.4-8.7,16.7c-5.5,4-12.5,6-21,6c-11.1,0-19.6-3.8-25.5-11.3c-6.1-7.6-9.1-18.6-9.1-33c0-14.8,2.9-26.3,8.7-34.4
		c6-8.5,14.5-12.7,25.6-12.7c15.4,0,25.6,8,30.7,24.1l26.9-6.5C132.7,367,128.5,358.7,123,352.4 M178.5,471.7V420H207l24.1,51.7
		h32.1l-28.4-56.4c15.6-7.2,23.4-19.1,23.4-35.6c0-11.6-3-20.7-8.9-27.5c-7.6-8.8-19.5-13.1-35.7-13.1H150v132.6H178.5z
		 M178.5,361.6h27.6c7.6,0,13.3,1.3,17,4c3.8,2.7,5.7,7.3,5.7,13.6c0,12.3-7.6,18.5-22.7,18.5h-27.6V361.6z M282.1,354.5
		c-11.3,12.2-17,29.3-17,51.1c0,23.8,6.8,41.8,20.4,54c11.3,10.2,26,15.3,44.2,15.3c20.3,0,36.1-6.2,47.6-18.6
		c11.4-12.3,17.1-29.2,17.1-50.8c0-21.7-5.7-38.7-17.1-51.1c-11.4-12.4-27.1-18.6-47.1-18.6C309.6,335.9,293.6,342.1,282.1,354.5
		 M355.9,372.3c6.2,8.1,9.3,19.2,9.3,33.2c0,15.3-3.7,27.1-11.2,35.3c-6.2,6.9-14.3,10.3-24.3,10.3c-11.2,0-20-4.2-26.3-12.5
		c-6.1-8.1-9.1-19.1-9.1-33.1c0-14,3-25.1,9.1-33.2c6.4-8.4,15-12.6,25.9-12.6C340.6,359.6,349.5,363.9,355.9,372.3 M404.9,420
		c0,16.7,4.4,29.9,13.2,39.4c9.5,10.3,23.7,15.5,42.5,15.5c18.3,0,32.2-4.8,41.6-14.3c9.6-9.7,14.4-23.2,14.4-40.6v-80.9H488v82.8
		c0,19.5-9,29.2-27.1,29.2c-18.2,0-27.3-9.7-27.3-29.2v-82.8h-28.7V420z M559.2,471.7v-47.8h30.4c14.5,0,26.1-3.8,34.9-11.3
		c9.2-7.8,13.7-18.3,13.7-31.5c0-13-4-23.3-11.9-30.8c-8-7.4-19-11.2-33.2-11.2h-62.3v132.6H559.2z M559.2,361.6H587
		c6.8,0,12.1,1.7,16,5.1c3.9,3.4,5.8,8.2,5.8,14.4c0,6.2-2.1,11.2-6.3,15c-4.1,3.5-9.3,5.3-15.8,5.3h-27.5V361.6z"/>
	<path d="M76.8,310.5c36.5,0,54.7-13.3,54.7-39.8c0-14.8-7.1-25-21.3-30.7c11.4-5.5,17.1-15,17.1-28.4c0-11.8-4.7-20.6-14-26.5
		c-7.4-4.8-17.6-7.1-30.3-7.1H19.3v132.6H76.8z M47.4,252.4h29.9c7.9,0,13.8,1,17.7,3c5.1,2.6,7.6,7.5,7.6,14.7c0,6-1.6,10.3-4.8,13
		c-3.9,3.3-10.7,4.9-20.5,4.9H47.4V252.4z M47.4,200.4h30.2c5.9,0,10.4,0.7,13.5,2.1c5.1,2.2,7.6,6.5,7.6,12.7c0,5.1-1.7,8.9-5,11.3
		c-3.2,2.4-8.6,3.6-16.1,3.6H47.4V200.4z M172.5,310.5V216l31.4,94.5h23.4l31.3-94.5v94.5h27.1V177.9h-37.5l-31.9,98.5l-32.4-98.5
		h-38.4v132.6H172.5z M361.6,310.4l24.6-93.6l23.4,93.6h31.1l32.2-132.6h-29.2l-20,95.7L401,177.8h-28.3l-23.4,95.7l-19.5-95.7
		h-29.9l30.4,132.6H361.6z"/>
</g>
</svg>
