<svg xmlns="http://www.w3.org/2000/svg" viewBox="0 0 171 42.6" height="51">
<style type="text/css">
	.st0{fill:none;stroke:#000000;stroke-width:0.43;stroke-miterlimit:22.93;}
</style>
<g>
	<g>
		<path d="M12.2,34.6c0,0.2,0.1,0.3,0.2,0.4c0.3,0.2,0.6,0.7,0.8,0.7c0.2,0,0.3-0.2,0.3-0.4c0-0.2-0.1-0.3-0.1-0.5s-0.2-0.2-0.4-0.4
			s-0.5-0.3-0.7-0.1L12.2,34.6z M14,36.4c-0.2-0.4-0.5-0.4-0.9-0.6c-0.2-0.1-0.1-0.1-0.2-0.2c-0.1,0-0.2,0-0.2,0
			c-0.5-0.1-1-0.2-1.4-0.4c-0.3-0.1-0.7-0.2-1-0.2c-0.1,0-0.1,0-0.2,0c-0.1,0.1,0,0.2,0,0.2c0.3,0.2,0.6,0.3,0.9,0.3l0.9,0.2
			c0.1,0,0.1,0,0.3,0c0.1,0,0.2,0,0.3,0C12.2,36,12.1,36,12,36s-0.2,0.1-0.3,0.1h-0.5h-0.1H11c-0.2,0-0.4,0-0.7,0
			c-0.4,0-0.4-0.2-0.5,0.3c0.7,0.7,0.7,0.2,1,0.4c0,0.2-0.1,0.1,0.1,0.4s0.4,0.3,0.9,0.2c0.2,0,0.3-0.1,0.4-0.1
			c0.4-0.2,0.9-0.2,1-0.6c0.1-0.1,0.1-0.1,0-0.2S13,36.2,13,36.1C13.5,36.2,13.8,36.9,14,36.4z M12.4,36.6l-0.1,0.1
			c-0.1,0.1,0,0-0.1,0.1l0,0c-0.2,0-0.1,0.1-0.4,0.1c-0.1,0-0.2,0-0.2-0.1l0,0c0.1-0.2,0.1,0,0.6,0C12.2,36.8,12.2,36.7,12.4,36.6
			c0.1,0,0-0.1,0.2-0.1C12.5,36.6,12.5,36.6,12.4,36.6z M19.5,37.5c0-0.1-0.1-0.1-0.2-0.1c0,0-0.1,0-0.1,0.1c-0.1,0.2,0,0.2-0.1,0.3
			C19,37.9,19,38,18.9,38c-0.1,0.1-0.2,0.1-0.3,0.2c0-0.2,0-0.4,0.1-0.5c0.2-0.3,0.1,0,0.3-0.4c0.1-0.2,0.2-0.4,0.2-0.7
			c0-0.1,0-0.3,0.1-0.4c0-0.2-0.2-0.6-0.3-0.6c0,0.2,0,0.4,0,0.7c0,0.3-0.1,0.4-0.1,0.6c-0.1,0.3-0.2,0.6-0.3,0.9
			c-0.1,0.1,0,0.1-0.1,0.1c-0.1-0.2,0.1-0.2,0.2-0.4s0-0.3-0.1-0.3c-0.1,0-0.3,0-0.3,0.1c-0.1,0.1-0.2,0.2-0.2,0.2
			c-0.1,0.1-0.1,0.2-0.3,0.2c0-0.1,0-0.2-0.1-0.2c0-0.1,0-0.1,0-0.2s0-0.1,0-0.2s0-0.2,0-0.3v-0.1c-0.1-0.2-0.3-0.3-0.5-0.2
			c0,0-0.1,0-0.1,0.1h-0.1h-0.1c-0.2,0.2-0.3,0.4-0.4,0.5c-0.2,0.2-0.3,0.3-0.5,0.4c-0.1,0.1-0.3,0.2-0.3,0.3h0.1c0.2,0,0.1,0,0.1,0
			H16c0.2,0,0.4-0.2,0.5-0.1l0,0l0,0l0,0c-0.3,0.2,0,0.2-0.4,0.3c-0.1,0.1-0.1,0-0.2,0c-0.2,0.1-0.3,0.1-0.5,0.2
			c-0.2,0.1-0.3,0.1-0.5,0.2c-0.2,0-0.2,0-0.3-0.1c-0.3,0.2-0.1,0.5,0,0.5c0.3,0.1,0.9-0.3,1.2-0.4c0.1,0,0.2-0.1,0.3-0.1
			c0.2-0.1,0.2-0.1,0.3,0c-0.1,0.2-0.2,0.3-0.4,0.4c-0.1,0.1-0.1,0.1-0.2,0.2c-0.1,0.1-0.1,0.2-0.1,0.3c0.1,0.1,0.2,0.1,0.3,0.2
			c0.2,0,0.2-0.1,0.3-0.2c0.1,0.1,0,0.3,0.1,0.4c0.1,0.1,0.3,0.1,0.4,0l0.4-1.2c0-0.1,0,0,0-0.1c0.1-0.3,0.1-0.3,0.4-0.5
			c0.1-0.1,0.2-0.2,0.3-0.2c0,0.3-0.2,0.3-0.2,0.6s-0.3,0.2-0.2,0.6c0.2,0.1,0.2,0.1,0.3,0c0.1-0.1,0.2-0.1,0.4-0.2
			c0,0.3-0.1,0.7-0.2,1c-0.1,0.4,0.1,0.1-0.2,0.7c-0.2,0.3-0.2,0.4,0,0.5s0.4,0.1,0.5-0.3l0.1-0.8c0.2-0.3,0.3-0.7,0.3-1.1
			c0-0.3,0.2-0.3,0.5-0.5S19.7,37.9,19.5,37.5z M18.1,38.4c0,0,0-0.1,0-0.1c0-0.1,0-0.1,0.1-0.1S18.2,38.4,18.1,38.4z M25.8,39.1
			L26,39c-0.2,0-0.4-0.1-0.6-0.1l0.4-0.7c0-0.1,0-0.1,0-0.2c0-0.1-0.1-0.2-0.3-0.2L25.1,38H25l0,0l0,0l0,0c0,0,0-0.2,0-0.2
			c0-0.1,0-0.1,0-0.2c0.3-0.2,0.5-0.3,0.8-0.4c0.2-0.2,0.1-0.3,0-0.4s-0.2,0-0.4,0L25,37l0,0l0,0c0,0-0.1-0.4-0.1-0.4
			c-0.1-0.1-0.1-0.1-0.2-0.1h-0.2l-0.2,0.1c-0.1,0-0.1,0.1-0.1,0.1l0,0l0,0l0,0l0,0c0,0,0,0,0,0.1c0,0,0.1,0.6,0.1,0.7
			c0,0,0,0.1,0,0.1v0.1l0,0l0,0L24,37.9l0,0h0c-0.1,0-0.1,0.1-0.1,0.1l0,0l0,0c0,0,0,0.1,0.1,0.1s0.2,0,0.3,0l0,0
			c0,0,0.1-0.1,0.1-0.2l0.1-0.1l0,0c0,0,0,0.3,0,0.3s0,0,0,0.1c0,0.2-0.6,0.4-0.6,0.4s-0.1,0,0,0.1c0.1,0.1,0.3,0.1,0.4,0.2
			c0.1,0,0.2,0.1,0.3,0.1l0,0l0,0l0,0l0,0c-0.1,0.1-0.2,0.2-0.3,0.2l0,0c0,0-0.8-0.1-0.8-0.1h-0.1v0.1h0.1l0.4,0.1l0,0l0.4,0.2H24
			l0,0l0,0l0.1,0.1h0.1l0,0l0,0c0.1,0.1,0.2,0.1,0.3,0c0.1-0.1,0.1-0.1,0.2-0.2l0.1-0.2H25l0.8,0.1l0,0L25.8,39.1z M24.9,38.7
			l-0.1,0.1c-0.1,0-0.2,0-0.2,0c0,0-0.1,0-0.1-0.1c0.2-0.1,0.4-0.2,0.6-0.3C25,38.5,25,38.6,24.9,38.7z M24.9,39
			c0,0,0.1,0.4,0.1,0.4l0.1,0.1l0,0l0,0l0,0l0,0c0.2,0.1,0.4,0.2,0.6,0.2c0.1,0,0.2,0.1,0.4,0.1h0.1l0,0c0,0,0.2,0,0.2-0.1l0,0
			c0,0,0-0.2,0.2-0.3s0.2-0.1,0.2-0.2C26.8,38.9,26.1,39,26,39l-1-0.1L24.9,39z M23.3,38.6L23.3,38.6C23.3,38.6,23.3,38.6,23.3,38.6
			c0.1-0.2,0.3-0.3,0.4-0.6c0,0,0-0.1,0,0s-0.4,0.3-0.4,0.4h0c0-0.1,0-0.2,0-0.3v-0.1l0,0l0,0l0,0l0,0h0.1l0,0h0.1h0.1l0,0
			c0.3-0.2,0-0.3,0-0.3s-0.1,0-0.4,0c0,0,0,0,0,0l0,0c0,0,0-0.3,0-0.3v-0.1l0,0l0,0l0,0c0,0,0-0.2-0.1-0.2c-0.2-0.1-0.4-0.1-0.6,0
			c-0.1,0.1-0.1,0.1,0,0.2l0,0l0,0l0,0c0,0,0.1,0.6,0.1,0.7v0l0,0l0,0c-0.1,0.1-0.2,0.1-0.3,0.2c-0.1,0-0.1,0.1-0.2,0.2
			c-0.1,0-0.1,0.1-0.2,0.1l0,0h-0.1l0,0l0,0c0,0,0.1,0.2,0.2,0.2l0,0c0,0,0,0,0.1,0h0.1c0.1-0.1,0.1-0.1,0.2-0.2
			c0.1-0.1,0.2-0.1,0.3-0.2l0,0l0,0l0,0l0,0c0,0,0,0,0,0.1s0,0.3,0,0.4l0,0l0,0l0,0c0,0-0.6,0.6-0.6,0.6l0,0l0,0l0,0l0,0l0,0
			c-0.1,0.1-0.1,0.1-0.1,0.2c0,0.1,0.1,0.1,0.1,0.2c0,0.1,0.1,0.1,0.2,0.1c0.1,0,0.1,0,0.1-0.1c0,0,0.2-0.4,0.2-0.5
			c0.1,0.1,0.2,0.1,0.3,0.2c0.1,0.1,0.1,0.2,0.1,0.2c0,0.1,0.1,0.2,0.2,0.2c0,0,0,0,0,0c0.2,0,0.4-0.3,0.4-0.6c0-0.1,0-0.2,0-0.3
			c0,0,0-0.1,0-0.1s0,0,0,0s0-0.1,0-0.1s-0.1-0.6-0.1-0.6c-0.1,0-0.1,0.1-0.1,0.1C23.2,38.6,23.2,38.7,23.3,38.6L23.3,38.6z
			 M22.9,39.6v0.1c-0.1-0.1-0.2-0.1-0.3-0.1c0,0,0.2-0.4,0.2-0.4l0,0C22.8,39.2,22.9,39.6,22.9,39.6L22.9,39.6z M31.1,35.9
			C31,35.9,31.1,35.9,31.1,35.9h-0.1c0,0-0.1,0.1-0.1,0.1c-0.6,0.7,0.5,0.5,0.9,0.5h0.1c0.5,0,0.5,0.2,0.6-0.2
			c0.1-0.3-0.2-0.5-0.3-0.5c-0.2-0.2-0.2-0.3-0.5-0.2c-0.1,0-0.2,0.1-0.3,0.1C31.1,35.8,31.2,35.8,31.1,35.9L31.1,35.9z M30.3,34.2
			c0.1,0.2,0.1,0.2,0.2,0.3s-0.1,0.2-0.1,0.3s0,0.2-0.2,0.3c-0.2-0.2-0.1-0.7-0.2-0.9c-0.2-0.5-0.7-0.4-0.7-0.1s0.3,0.4,0.5,0.9
			c0.1,0.3,0.1,0.6,0,0.9c-0.3,0.4-0.6,0.8-1,1.1c-0.5,0.3,0,0.6,0.3,0.5c0.2-0.1,0.3-0.2,0.5-0.3c0.2-0.2,0.5-0.8,0.7-0.7
			s0-0.1,0,0s0,0.1,0,0.2c0,0.2-0.1,0.4-0.2,0.5L29,38.1c-0.1,0.1-0.2,0.1-0.2,0.2s0,0,0.1,0l0,0c0.1-0.1,0.3-0.2,0.5-0.2
			c0.4-0.1,0.7-0.3,0.8-0.6c0.5-0.7,0.3-0.9,0.2-1.5c0-0.1,0-0.3,0-0.4l0.5-1c0.1-0.3,0.4-0.5,0-0.7C30.8,34,30.7,34,30.6,34
			C30.5,34,30.4,34.1,30.3,34.2L30.3,34.2z M20.7,10.9c-0.6,0.4-1.2,0.9-1.6,1.5c-0.2,0.4-0.1,0.6,0.6,0.2c0.9-0.6,1.8-1,2.8-1.4
			c1.1-0.4,2.2-0.6,3.3-0.8c0.1,0,0.1,0.1,0,0.2c-2.9,2.7-3.2,4.7-2.4,5c0.6,0.1,1.1,0.1,1.6-0.2c0.6-0.2,1.2-0.4,1.8-0.5
			c1.5-0.1,2.2,2.9,0.5,5.7c-1,1.4-2.2,2.6-3.6,3.5c-0.1,0-0.1-0.1-0.1-0.3s0.9-2.1,0.2-2.4c-0.1,0-0.4,0-0.7,0.7
			c-0.3,0.8-0.6,1-0.7,0.9s-0.1-0.2-0.1-0.4s0-0.3,0-0.2s-0.9,1-1.1,0.9c-0.1,0-0.1-0.1-0.1-0.2s0.1-0.3,0.1-0.3
			c-0.9,0.8-1.9,1.4-3.1,1.7c-0.2,0-0.4,0-0.6,0c-0.1,0-0.1-0.1,0-0.2c0,0,0,0,0,0c1-0.5,1.9-1.3,2.6-2.3c0.2-0.4,0.2-0.6,0.2-0.7
			c-0.2-0.3-0.9,0-1.4,0.2c-0.7,0.4-1.4,0.6-2.2,0.8c-1.2,0.2-2.5-0.2-3.3-1.1c-0.7-0.9-1-2-0.8-3.1c0.4-3.3,3.5-5.3,4.6-6
			c1.1-0.7,2.2-1.2,3.4-1.6C20.9,10.6,20.9,10.7,20.7,10.9L20.7,10.9z M20.4,30.1v-3.8c0-0.3-0.2-0.5-0.5-0.5l0,0
			c-1.3,0-2.6-0.2-3.9-0.4c-0.1,0-0.2,0-0.3,0.1c-0.1,0.1,0,0.2,0,0.3s0.2,0.7,0.2,0.7c0.1,0.4,0.7,0.5,1.1,0.6l1.7,0.4
			c0.8,0.2,1,0.8,1,1.6v0.7l0,0c0,0.6-0.1,1.1-0.5,1.1s-1-0.5-1.2-1l0,0l0,0l0-0.2l-0.5-1.1c0-0.1-0.1-0.1-0.1-0.2
			c-0.1,0-0.1-0.1-0.2-0.1h-0.6l0.8,2.6c0.1,0.6,0.4,1.1,0.8,1.5c0.7,0.5,1.6,0.8,2.4,0.7c0.9,0.1,1.7-0.2,2.4-0.8
			c0.4-0.4,0.7-0.9,0.8-1.5l0.7-2.6H24c-0.1,0-0.2,0-0.2,0.1c0,0.1-0.1,0.1-0.1,0.2l-0.5,1.1c0,0,0,0.1,0,0.1l0,0l0,0
			c-0.2,0.5-0.6,1-1.2,1s-0.5-0.4-0.5-1.1l0,0v-0.7c0-0.8,0.2-1.5,1-1.6l1.7-0.4c0.4-0.1,1-0.2,1.1-0.6c0,0,0.2-0.5,0.2-0.7
			s0.1-0.2,0-0.3c-0.1-0.1-0.2-0.1-0.3-0.1c-1.3,0.3-2.6,0.4-3.9,0.4l0,0c-0.3,0-0.5,0.2-0.5,0.5V30c0,0.1-0.1,0.2-0.1,0.2
			c0,0,0,0,0,0C20.6,30.2,20.5,30.2,20.4,30.1C20.4,30.1,20.4,30.1,20.4,30.1L20.4,30.1z M33.5,34L33.5,34L33.5,34L33.5,34l0.1-0.5
			c0-0.4,0.1-0.2,0.1-0.5s0.1-0.3,0.2-0.5s0.1-0.1,0.1-0.2s0-0.1,0.1-0.2c0.1,0.4-0.2,0.5,0,0.7C34.1,32.9,34,33,34,33.2
			c0,0.2-0.1,0.3-0.2,0.4c-0.2,0.3-0.2,0.2-0.1,0.3c0.2,0,0.3-0.3,0.4-0.4s0.2-0.4,0.2-0.4c0.1-0.2,0.1-0.3,0.2-0.5
			c0.1,0.3-0.2,0.7-0.2,0.8s0.2,0.2,0.2,0.2s0,0-0.1,0.1l-0.3,0.4c-0.1,0.1-0.4,0.4-0.5,0.5c0.2,0.3,1-0.8,1.3-0.8c0,0,0,0,0.1,0.1
			v0.1c0.1,0.2,0,0.3-0.1,0.5c0.1,0.1,0,0,0.1,0s0,0.1,0.1,0.2c0.3,0,0.6-0.1,0.5-0.5c0-0.1,0-0.1,0-0.2c-0.1-0.2-0.3-0.4-0.3-0.6
			c0.5-0.4,1-0.5,0.6-0.9c-0.1-0.1-0.1,0-0.1-0.1s0-0.2-0.1-0.1s-0.2,0.2-0.4,0.3c-0.1,0.1-0.3,0.3-0.4,0.4c-0.1,0-0.2-0.1-0.2-0.2
			v-0.7c0-0.1-0.1-0.2-0.2-0.3c-0.2,0-0.2,0.1-0.3,0.1s0-0.2,0.1-0.3s0.1-0.2,0.2-0.3s0-0.1,0-0.1s0-0.1,0-0.1s0-0.3-0.2-0.2
			L34.4,31c-0.1,0.1-0.1,0.1-0.2,0.2c-0.1,0.3-0.3,0.7-0.5,1c-0.1-0.1,0,0,0-0.1l0-0.3c0.1-0.2,0.2-0.5,0.2-0.8c0-0.2,0.1-0.2,0-0.4
			s-0.2,0-0.3,0c-0.1-0.2,0.3-0.3-0.1-0.4h-0.2c-0.1-0.1,0-0.2-0.2-0.2c-0.3,0.2-0.1,0.4,0,0.6s0,0.1,0,0.2s0,0,0,0.2c0,0,0,0,0,0.1
			c0,0.1,0,0.1-0.1,0.1c-0.1,0,0-0.1-0.2-0.1s-0.3,0.3-0.2,0.4c-0.1,0-0.1,0.1-0.2,0.1v0.1c-0.1,0.2,0.2,0.5,0.3,0.7
			s0.1,0.2,0.2,0.3c0.1,0,0.2,0,0.3,0c0.2,0,0.2-0.1,0.2-0.2s0.2-0.1,0.1-0.2s-0.1-0.2,0-0.2v0.1c0,0.2-0.1,0.4-0.1,0.7
			c0,0.2-0.2,0.6-0.2,0.7c-0.1,0.2,0,0.4,0.2,0.5C33.5,34,33.5,34,33.5,34z M33.5,31.7L33.5,31.7c0-0.1,0-0.2,0.1-0.3
			C33.6,31.5,33.6,31.6,33.5,31.7L33.5,31.7z M34.2,32.2c0-0.2,0-0.2,0.2-0.3c0,0.1,0,0.2-0.1,0.3s0,0.2-0.2,0.3v-0.2
			C34.2,32.2,34.2,32.2,34.2,32.2L34.2,32.2z M7.2,32.9L7.2,32.9C7.1,33,7.1,33,7,33c-0.1,0-0.2,0-0.3,0H6.5c-0.1,0-0.1,0-0.2,0
			s-0.2,0.2-0.2,0.4s0,0.3,0.3,0.4s0.5,0.2,0.6,0.3S7,34.3,6.9,34.2s0,0-0.1,0H6.8c-0.1,0.2,0,0.1-0.1,0.3l0.2,0.2
			c0.4-0.2,0.2-0.6,0.6-0.5c0.1,0,0.2,0,0.3,0c0.1,0.3-0.1,0.2-0.1,0.5s0.2,0.4,0.2,0.4c0.2,0,0.3-0.3,0.4-0.4l0.4-0.5
			c0.1-0.1,0.2-0.2,0.4-0.5c0.1-0.1,0.1-0.2,0.2-0.2c0.1-0.1,0.2-0.2,0.2-0.3c0.1-0.1,0.1-0.2,0.2-0.2s0.1-0.2,0.1-0.3
			c-0.1-0.2-0.1-0.4-0.4-0.4c-0.1,0-0.2,0-0.3,0H8.6c-0.1,0-0.2,0-0.3,0c0-0.1,0.1-0.2,0.2-0.3c0.1,0,0.1,0,0.2-0.1
			c0.4,0,0.1,0,0.5,0c0.1,0,0.2,0,0.2-0.1c0.1-0.2,0-0.1,0-0.4c0-0.1,0-0.1,0.1-0.1c0.1-0.1,0.2-0.1,0.3-0.3
			c-0.1-0.4-0.3-0.3-0.3-0.3l0,0L9,31.2c-0.3,0.2-0.8,0-1.1-0.1s-0.1,0-0.2,0l-0.6-0.2c-0.1,0-0.1,0-0.2,0s-0.1,0-0.2,0.1
			c0,0.1,0.1,0.2,0.2,0.3c0.3,0.1,0.7,0.3,1,0.5c0,0,0,0,0,0.1C7.9,31.9,7.7,32,7.5,32c-0.2,0-0.1-0.1-0.3,0S7,32.1,6.9,32.2H6.8
			c-0.1,0,0,0-0.2,0c-0.3,0-0.2,0.1-0.4,0.1c-0.1,0-0.2,0-0.3,0s-0.1,0-0.2,0s-0.5,0.2-0.2,0.5s0.2-0.2,1.2-0.2c0.1,0,0.2,0,0.3,0.1
			c0,0,0,0.1,0.1,0.1C7.1,32.8,7.2,32.8,7.2,32.9L7.2,32.9z M6.7,33.5h0.6c0.1,0,0.2,0,0.2,0.1c0,0.1,0,0.1-0.1,0.1l0,0
			C7.2,33.7,6.7,33.5,6.7,33.5L6.7,33.5z M7.7,32.8L7.7,32.8l0.1-0.2h0.4c0.1,0,0.3,0,0.4,0s-0.1,0.1-0.2,0.1
			c-0.1,0-0.1,0.1-0.2,0.1C8,32.8,7.8,33,7.7,32.8L7.7,32.8z M8,34.3L8,34.3l-0.1-0.2c0,0,0-0.1,0-0.1s-0.1-0.1-0.1-0.2
			c0.1-0.1,0.1-0.2,0.2-0.3l0.1-0.1c0.1-0.1,0.1,0,0.1-0.1s-0.1-0.2,0-0.3s0.1,0,0.1,0h0.4c-0.1,0.2-0.3,0.5-0.4,0.7
			C8.4,33.7,8.1,34.2,8,34.3L8,34.3z M35.6,35.8L35.6,35.8c-8,8-21,8-29,0s-8-21,0-29s21-8,29,0S43.6,27.8,35.6,35.8z M35.9,6.5
			c-8.2-8.2-21.5-8.2-29.7,0s-8.2,21.5,0,29.7c8.2,8.2,21.5,8.2,29.7,0S44.1,14.6,35.9,6.5L35.9,6.5z M30.9,31.2L30.9,31.2
			c-5.4,5.5-14.3,5.5-19.7,0s-5.5-14.3,0-19.7c5.4-5.5,14.2-5.6,19.7-0.2s5.6,14.2,0.2,19.7C31,31,30.9,31.1,30.9,31.2L30.9,31.2z
			 M31.1,11.3c-5.6-5.5-14.6-5.5-20.1,0s-5.5,14.6,0,20.1s14.6,5.5,20.1,0c2.7-2.7,4.2-6.3,4.2-10C35.3,17.5,33.8,13.9,31.1,11.3
			L31.1,11.3z M5.5,28.1L5.5,28.1l-0.1-0.2c0.1,0,0.2-0.1,0.2-0.2c0.1-0.1,0.1-0.1,0.1-0.2c0-0.1,0-0.2,0-0.2c0-0.1-0.1-0.1-0.1-0.2
			C5.6,27,5.5,27,5.4,27c-0.1,0-0.1,0-0.2,0c-0.1,0-0.1,0.1-0.2,0.1c0,0.1-0.1,0.1-0.1,0.2c0,0,0,0.1,0,0.3c0,0.1,0,0.3,0,0.4
			c0,0.1-0.1,0.2-0.1,0.2c-0.1,0.1-0.1,0.1-0.2,0.2c-0.1,0-0.2,0.1-0.3,0c-0.1,0-0.2,0-0.3-0.1c-0.1-0.1-0.1-0.1-0.2-0.2
			c0-0.1,0-0.2,0-0.3c0-0.1,0.1-0.2,0.2-0.3c0.1-0.1,0.2-0.2,0.3-0.2l0.1,0.2c-0.1,0-0.2,0.1-0.3,0.2c0,0.1,0,0.2,0,0.3
			c0,0.1,0.1,0.2,0.2,0.2c0.1,0,0.2,0,0.2,0c0.1,0,0.1-0.1,0.2-0.1c0-0.1,0-0.2,0-0.4c0-0.1,0-0.2,0-0.4c0-0.1,0.1-0.2,0.1-0.3
			C5,27,5.1,26.9,5.2,26.9c0.1,0,0.2-0.1,0.3-0.1c0.1,0,0.2,0,0.3,0.1C5.9,27,6,27.1,6,27.2c0,0.1,0,0.2,0,0.4
			c0,0.1-0.1,0.2-0.2,0.3C5.7,27.9,5.6,28,5.5,28.1z M4.6,26.7L4.6,26.7c-0.3,0.1-0.6,0.1-0.9,0c-0.2-0.1-0.4-0.2-0.5-0.4
			c-0.1-0.1-0.1-0.3,0-0.4c0.1-0.1,0.2-0.3,0.3-0.4c0.2-0.1,0.4-0.2,0.6-0.2c0.2-0.1,0.4-0.1,0.6-0.1c0.2,0,0.3,0.1,0.5,0.1
			c0.1,0.1,0.2,0.2,0.2,0.3c0.1,0.1,0.1,0.3,0,0.4c-0.1,0.2-0.2,0.3-0.3,0.4C5,26.6,4.8,26.6,4.6,26.7z M4.6,26.5L4.6,26.5
			c0.2-0.1,0.4-0.2,0.6-0.3c0.1-0.1,0.2-0.3,0.1-0.4c0-0.2-0.2-0.3-0.3-0.3c-0.2-0.1-0.5-0.1-0.7,0c-0.2,0-0.3,0.1-0.4,0.2
			c-0.1,0.1-0.2,0.2-0.2,0.3c0,0.1,0,0.2,0,0.3c0,0.1,0.2,0.3,0.3,0.3C4.1,26.6,4.3,26.6,4.6,26.5z M2.8,24.1L2.8,24.1v-0.2L4,23.7
			c0.2,0,0.4-0.1,0.5,0c0.1,0,0.3,0.1,0.3,0.1c0.1,0.1,0.2,0.2,0.2,0.3c0,0.1,0,0.3,0,0.4c-0.1,0.1-0.2,0.2-0.3,0.2
			c-0.2,0.1-0.4,0.1-0.6,0.2L3,25.1v-0.2l1.3-0.2c0.1,0,0.3-0.1,0.4-0.1c0.1,0,0.1-0.1,0.2-0.2c0.1-0.2,0-0.4-0.2-0.5
			c-0.2-0.1-0.4-0.1-0.6,0L2.8,24.1z M4.9,22.7L4.9,22.7l-2,0.1v0.5H2.6l-0.1-1.2h0.3v0.5l2-0.1L4.9,22.7z M4.8,21.7L4.8,21.7
			l-2.2-0.1v-0.2h0.9v-0.8H2.6v-0.2l2.2,0.1v0.2h-1v0.8h1.1L4.8,21.7z M4.8,20.1L4.8,20.1l-2.2-0.3l0.1-1.1H3l-0.1,0.9l0.7,0.1
			l0.1-0.9L4,19l-0.1,0.9L4.7,20l0.1-1L5,19L4.8,20.1z M5,18.7L5,18.7l-2.2-0.4L3,17.6c0-0.1,0.1-0.2,0.1-0.3
			c0.1-0.1,0.2-0.1,0.2-0.1c0.1,0,0.2,0,0.3,0c0.1,0,0.3,0.1,0.4,0.2c0.1,0.1,0.1,0.2,0.1,0.4c0,0,0.1-0.1,0.1-0.1
			c0.1,0,0.2-0.1,0.3-0.1l0.7-0.1v0.2l-0.5,0.1l-0.3,0.1c-0.1,0-0.1,0-0.2,0.1L4.2,18c0,0,0,0.1,0,0.1l-0.1,0.2l1,0.2L5,18.7z
			 M3.8,18.2L3.8,18.2l0.1-0.4c0-0.1,0-0.2,0-0.2c0-0.1-0.1-0.1-0.1-0.1c-0.1,0-0.1-0.1-0.2-0.1c-0.1,0-0.2,0-0.3,0
			c-0.1,0-0.1,0.1-0.2,0.2l-0.1,0.5L3.8,18.2z M5.3,17.1L5.3,17.1l-2.2-0.6l0.1-0.2l2-0.3l-1.7-0.5l0.1-0.2l2.2,0.6l-0.1,0.2
			l-1.9,0.3l1.7,0.5L5.3,17.1z M4.7,12.6L4.7,12.6l0.1-0.2L6,13.1c0.2,0.1,0.3,0.2,0.4,0.3c0.1,0.1,0.2,0.2,0.2,0.3
			c0,0.1,0,0.3,0,0.4c-0.1,0.1-0.1,0.2-0.3,0.3c-0.1,0-0.2,0-0.4,0c-0.2,0-0.4-0.1-0.5-0.2l-1.2-0.6l0.1-0.2L5.5,14
			c0.1,0.1,0.3,0.1,0.4,0.2c0.1,0,0.2,0,0.2,0c0.1,0,0.1-0.1,0.2-0.2c0.1-0.1,0.1-0.2,0-0.4c-0.1-0.2-0.3-0.3-0.5-0.3L4.7,12.6z
			 M7,13.2L7,13.2L5.1,12l0.1-0.2L7.2,12l-1.5-1l0.1-0.2l1.9,1.2l-0.1,0.2L5.6,12l1.5,1L7,13.2z M7.9,11.8L7.9,11.8l-1.8-1.3
			l0.1-0.2L8,11.6L7.9,11.8z M8.5,11L8.5,11l-2.1-1l0.1-0.2l1.5,0.8l0.3,0.2l-0.2-0.3L7.2,9l0.1-0.2l1.3,1.9L8.5,11z M9.2,10.2
			L9.2,10.2L7.7,8.6l0.8-0.8L8.7,8L8,8.6l0.5,0.5l0.6-0.6l0.2,0.2L8.7,9.3l0.5,0.6l0.7-0.7l0.2,0.2L9.2,10.2z M10.3,9.2L10.3,9.2
			L8.9,7.4L9.4,7c0.1-0.1,0.2-0.1,0.3-0.2c0.1,0,0.2,0,0.3,0c0.1,0.1,0.2,0.1,0.3,0.2c0.1,0.1,0.2,0.2,0.2,0.4c0,0.1,0,0.3-0.1,0.4
			h0.2c0.1,0,0.2,0.1,0.3,0.1l0.6,0.3l-0.2,0.2l-0.4-0.2L10.4,8c-0.1,0-0.1,0-0.2,0h-0.1L10,8.1L9.8,8.2L10.4,9L10.3,9.2z M9.7,8
			L9.7,8L10,7.8c0.1,0,0.1-0.1,0.1-0.2c0-0.1,0-0.1,0-0.2c0-0.1-0.1-0.1-0.1-0.2C10,7.2,9.9,7.1,9.8,7.1c-0.1,0-0.2,0-0.3,0.1
			L9.2,7.5L9.7,8z M11.1,7.5L11.1,7.5l0.1-0.1c0.1,0.1,0.1,0.1,0.2,0.2c0.1,0,0.1,0.1,0.2,0.1c0.1,0,0.2,0,0.2-0.1
			c0,0,0.1-0.1,0.1-0.1c0-0.1,0-0.1,0-0.2C12,7.2,11.9,7,11.8,7c-0.1,0-0.1,0-0.2,0l-0.2,0c-0.1,0-0.2,0-0.3,0c-0.1,0-0.2,0-0.3,0
			c-0.1-0.1-0.1-0.1-0.2-0.2c-0.1-0.1-0.1-0.2-0.1-0.3c0-0.1,0-0.2,0-0.3c0-0.1,0.1-0.2,0.2-0.2c0.1-0.1,0.2-0.1,0.3-0.1
			c0.1,0,0.2,0,0.3,0.1c0.1,0.1,0.2,0.2,0.3,0.3l-0.2,0.1c-0.1-0.1-0.2-0.2-0.3-0.2c-0.1,0-0.2,0-0.3,0.1c-0.1,0-0.1,0.1-0.2,0.2
			c0,0.1,0,0.2,0,0.2c0,0.1,0.1,0.1,0.2,0.1c0.1,0,0.2,0,0.4,0c0.1,0,0.2-0.1,0.4-0.1c0.1,0,0.2,0,0.3,0.1C11.9,6.9,12,6.9,12.1,7
			c0.1,0.1,0.1,0.2,0.1,0.3c0,0.1,0,0.2,0,0.3c0,0.1-0.1,0.2-0.2,0.2C11.9,8,11.8,8,11.7,8c-0.1,0-0.2,0-0.3-0.1
			C11.2,7.8,11.1,7.7,11.1,7.5L11.1,7.5z M12.8,7.3L12.8,7.3l-1.1-1.9l0.2-0.1l1.1,2L12.8,7.3z M13.7,6.8L13.7,6.8l-0.9-1.8
			l-0.5,0.2l-0.1-0.2l1.1-0.6l0.1,0.2L13,5l0.9,1.8L13.7,6.8z M14.9,6.2L14.9,6.2l-0.4-0.9l-1-1l0.2-0.1l0.5,0.5
			c0.1,0.1,0.2,0.2,0.3,0.3c0-0.1,0-0.3,0-0.4V3.9l0.2-0.1l-0.1,1.4l0.4,0.9L14.9,6.2z M16.6,4.5L16.6,4.5c-0.1-0.3-0.1-0.6,0-0.9
			c0.1-0.2,0.2-0.4,0.5-0.4c0.1,0,0.3,0,0.4,0.1c0.1,0.1,0.3,0.2,0.4,0.3C17.9,3.8,18,4,18.1,4.2c0,0.2,0,0.4,0,0.6
			c0,0.2-0.1,0.3-0.2,0.5c-0.1,0.1-0.2,0.2-0.3,0.2c-0.1,0-0.3,0-0.4-0.1c-0.1-0.1-0.3-0.2-0.4-0.3C16.7,4.9,16.6,4.7,16.6,4.5
			L16.6,4.5z M16.8,4.5L16.8,4.5c0,0.2,0.1,0.4,0.3,0.6c0.1,0.2,0.4,0.2,0.6,0.1c0.1-0.1,0.1-0.1,0.2-0.2c0.1-0.2,0.1-0.5,0-0.7
			c0-0.2-0.1-0.3-0.2-0.5c-0.1-0.1-0.2-0.2-0.3-0.3c-0.1,0-0.2,0-0.3,0c-0.2,0-0.3,0.2-0.3,0.3C16.8,4.1,16.8,4.3,16.8,4.5z
			 M18.6,5.3L18.6,5.3L18.4,3l1-0.1v0.3l-0.8,0.1l0.1,0.7l0.7-0.1v0.3l-0.7,0.1l0.1,1L18.6,5.3z M21,4.4L21,4.4h0.2
			c0,0.1,0,0.2,0.1,0.3c0,0.1,0.1,0.1,0.1,0.2c0.1,0,0.1,0.1,0.2,0.1c0.1,0,0.1,0,0.2,0c0.1,0,0.1-0.1,0.2-0.2c0-0.1,0-0.1,0-0.2
			c0-0.1,0-0.1,0-0.2c0-0.1-0.1-0.1-0.1-0.1l-0.3-0.1c-0.1,0-0.2-0.1-0.3-0.2c-0.1-0.1-0.1-0.1-0.2-0.2c0-0.1-0.1-0.2,0-0.3
			c0-0.1,0-0.2,0.1-0.3c0-0.1,0.1-0.2,0.2-0.2c0.1,0,0.2-0.1,0.3-0.1c0.1,0,0.2,0,0.3,0.1C22,3,22.1,3.1,22.2,3.2
			c0,0.1,0.1,0.2,0.1,0.4H22c0-0.1,0-0.2-0.1-0.3c-0.1-0.1-0.2-0.1-0.3-0.1c-0.1,0-0.2,0-0.3,0.1c-0.1,0.1-0.1,0.2-0.1,0.2
			c0,0.1,0,0.1,0.1,0.2c0.1,0.1,0.2,0.1,0.3,0.2c0.1,0,0.2,0.1,0.4,0.2c0.1,0.1,0.1,0.1,0.2,0.2c0,0.1,0,0.2,0,0.3
			c0,0.1,0,0.2-0.1,0.3C22,4.9,22,5,21.9,5.1c-0.1,0.1-0.2,0.1-0.3,0.1c-0.1,0-0.2,0-0.4-0.1C21.1,5,21,4.9,21,4.8
			C21,4.6,21,4.5,21,4.4z M23.7,4.5L23.7,4.5l0.2,0.1c-0.1,0.2-0.2,0.4-0.3,0.5c-0.1,0.1-0.3,0.2-0.4,0.1c-0.1,0-0.3-0.1-0.4-0.2
			c-0.1-0.1-0.2-0.3-0.2-0.5c0-0.2,0-0.4,0-0.6c0-0.2,0.1-0.4,0.2-0.6c0.1-0.1,0.2-0.3,0.3-0.4C23.2,3,23.3,3,23.5,3
			c0.1,0,0.3,0.1,0.4,0.2C23.9,3.4,24,3.5,24,3.7h-0.2c0-0.1,0-0.3-0.1-0.4c-0.1-0.1-0.2-0.1-0.2-0.1c-0.1,0-0.2,0-0.3,0.1
			c-0.1,0.1-0.2,0.2-0.2,0.3c0,0.1-0.1,0.3-0.1,0.4c0,0.2,0,0.3,0,0.5c0,0.1,0.1,0.2,0.1,0.3C23,4.9,23.1,5,23.2,5
			c0.1,0,0.2,0,0.3-0.1C23.6,4.8,23.7,4.7,23.7,4.5z M24.1,5.4L24.1,5.4l0.4-2.2h0.2l-0.4,2.2H24.1z M24.7,5.5L24.7,5.5l0.6-2.2
			l1.1,0.3l-0.1,0.2l-0.9-0.2l-0.2,0.7l0.8,0.2L26,4.8l-0.8-0.2L25,5.3l0.9,0.3l-0.1,0.2L24.7,5.5z M26.2,5.9L26.2,5.9L27,3.8
			l0.2,0.1l0.1,1.9L28,4.2l0.2,0.1l-0.9,2.1l-0.2-0.1L27,4.3L26.3,6L26.2,5.9z M29,6.3L29,6.3l0.1,0.2c-0.1,0.2-0.3,0.3-0.5,0.4
			c-0.1,0.1-0.3,0.1-0.5,0c-0.1-0.1-0.2-0.2-0.3-0.3c0-0.2,0-0.3,0-0.5c0-0.2,0.1-0.4,0.2-0.6c0.1-0.2,0.2-0.4,0.4-0.5
			c0.1-0.1,0.3-0.2,0.4-0.2c0.1,0,0.3,0,0.4,0c0.1,0.1,0.2,0.2,0.3,0.3c0,0.2,0,0.4,0,0.5h-0.2c0-0.1,0-0.3,0-0.4
			c0-0.1-0.1-0.2-0.2-0.2c-0.1,0-0.2,0-0.3,0c-0.1,0-0.2,0.1-0.3,0.2c-0.1,0.1-0.2,0.2-0.2,0.4c-0.1,0.1-0.1,0.3-0.2,0.5
			c0,0.1,0,0.2,0,0.4c0,0.1,0.1,0.2,0.2,0.2c0.1,0.1,0.2,0.1,0.3,0C28.8,6.6,28.9,6.4,29,6.3z M29.1,7.2L29.1,7.2l1.2-1.9l1,0.6
			l-0.1,0.2l-0.8-0.5L30,6.2l0.7,0.5l-0.1,0.2l-0.7-0.5l-0.4,0.6l0.8,0.5l-0.1,0.2L29.1,7.2z M31,8.5L31,8.5l1.9-1.3l0.2,0.2l-1,2.1
			l-0.2-0.1l0.3-0.6l-0.5-0.4l-0.6,0.4L31,8.5z M32,8.1L32,8.1l0.4,0.4l0.3-0.6l0.2-0.4c-0.1,0.1-0.2,0.2-0.3,0.3L32,8.1z M32.3,9.6
			L32.3,9.6L33.8,8L34,8.1L33.3,10l1.3-1.2l0.1,0.1l-1.6,1.5l-0.2-0.1l0.7-1.8l-1.3,1.2L32.3,9.6z M33.4,10.7L33.4,10.7l1.8-1.4
			l0.3,0.4c0.1,0.1,0.1,0.1,0.2,0.2c0,0.1,0,0.2,0,0.3c0,0.1-0.1,0.3-0.2,0.4c-0.1,0.1-0.3,0.2-0.4,0.3c-0.1,0.1-0.2,0.2-0.4,0.2
			c-0.1,0.1-0.2,0.1-0.3,0.1c-0.1,0-0.2,0-0.2,0c-0.1,0-0.1,0-0.2-0.1c-0.1,0-0.1-0.1-0.2-0.2L33.4,10.7z M33.7,10.7L33.7,10.7
			l0.2,0.3c0.1,0.1,0.1,0.1,0.2,0.2c0.1,0,0.1,0,0.2,0c0.1,0,0.2,0,0.3-0.1c0.1-0.1,0.3-0.2,0.4-0.2c0.1-0.1,0.3-0.2,0.4-0.4
			c0.1-0.1,0.1-0.2,0.1-0.3c0-0.1-0.1-0.2-0.1-0.2L35,9.7L33.7,10.7z M35.1,13.2L35.1,13.2l1.7-1l-0.3-0.4l0.2-0.1l0.6,1.1l-0.2,0.1
			L37,12.4l-1.7,1L35.1,13.2z M35.6,14.1L35.6,14.1l2-0.9l0.5,1l-0.2,0.1l-0.4-0.8l-0.6,0.3l0.3,0.8l-0.2,0.1l-0.3-0.8l-0.7,0.3
			l0.4,0.9L36,15.1L35.6,14.1z M37.3,16.2L37.3,16.2v0.2c-0.2,0.1-0.4,0.1-0.6,0c-0.1-0.1-0.3-0.2-0.3-0.3c-0.1-0.1-0.1-0.3,0-0.4
			c0.1-0.1,0.2-0.3,0.3-0.4c0.2-0.1,0.4-0.2,0.5-0.3c0.2-0.1,0.4-0.1,0.6-0.1c0.2,0,0.3,0,0.5,0.1c0.1,0.1,0.2,0.2,0.3,0.3
			c0.1,0.1,0.1,0.3,0,0.4c-0.1,0.2-0.2,0.3-0.4,0.4L38,15.9c0.1-0.1,0.2-0.1,0.3-0.3c0-0.1,0-0.2,0-0.3c0-0.1-0.1-0.2-0.2-0.2
			c-0.1,0-0.2-0.1-0.4-0.1c-0.1,0-0.3,0.1-0.4,0.1c-0.2,0.1-0.3,0.1-0.5,0.2c-0.1,0.1-0.2,0.2-0.2,0.3c0,0.1,0,0.2,0,0.3
			c0,0.1,0.1,0.2,0.2,0.2C36.9,16.2,37.1,16.2,37.3,16.2L37.3,16.2z M36.7,17L36.7,17l2.2-0.5v0.2L38,16.9l0.2,0.8l0.9-0.2v0.2
			l-2.2,0.5v-0.2l1-0.2l-0.2-0.8l-1,0.2V17z M37,18.5L37,18.5l2.2-0.3v0.2l-1.7,1l1.8-0.2v0.2l-2.2,0.3v-0.2l1.7-1L37,18.7V18.5z
			 M38.3,20L38.3,20c0.3,0,0.6,0,0.9,0.2c0.2,0.1,0.3,0.3,0.3,0.5c0,0.1,0,0.3-0.1,0.4c-0.1,0.1-0.2,0.2-0.4,0.3
			c-0.2,0.1-0.4,0.1-0.6,0.1c-0.2,0-0.4,0-0.6-0.1c-0.2,0-0.3-0.1-0.4-0.3c-0.2-0.2-0.2-0.6,0-0.8c0.1-0.1,0.3-0.2,0.4-0.3
			C37.9,20,38.1,20,38.3,20z M38.3,20.2L38.3,20.2c-0.2,0-0.4,0.1-0.6,0.2c-0.1,0.1-0.2,0.2-0.2,0.4c0,0.2,0.1,0.3,0.2,0.4
			c0.2,0.1,0.4,0.1,0.7,0.1c0.2,0,0.3,0,0.5-0.1c0.1,0,0.2-0.1,0.3-0.2c0.1-0.1,0.1-0.2,0.1-0.3c0-0.2-0.1-0.3-0.2-0.4
			C38.8,20.2,38.5,20.2,38.3,20.2L38.3,20.2z M37.2,21.8L37.2,21.8l2.2,0.2v0.2l-2-0.1l-0.1,0.8h-0.3L37.2,21.8z M38.2,23.1
			L38.2,23.1c0.3,0,0.6,0.1,0.8,0.3c0.2,0.1,0.3,0.3,0.2,0.6c0,0.1-0.1,0.3-0.2,0.4c-0.1,0.1-0.3,0.2-0.4,0.2c-0.2,0-0.4,0-0.6,0
			c-0.2,0-0.4-0.1-0.6-0.2c-0.1-0.1-0.3-0.2-0.4-0.3C37,24,37,23.8,37,23.7c0-0.1,0.1-0.3,0.2-0.4c0.1-0.1,0.3-0.2,0.4-0.2
			C37.8,23.1,38,23.1,38.2,23.1L38.2,23.1z M38.2,23.3L38.2,23.3c-0.2,0-0.4,0-0.7,0.1c-0.2,0.1-0.3,0.2-0.3,0.4
			c0,0.2,0.1,0.3,0.2,0.4c0.2,0.1,0.4,0.2,0.6,0.2c0.2,0,0.3,0,0.5,0c0.1,0,0.2-0.1,0.3-0.1C39,24.2,39,24.1,39,24
			c0-0.2,0-0.3-0.2-0.4C38.6,23.4,38.4,23.4,38.2,23.3L38.2,23.3z M37.5,25.7L37.5,25.7l0.2,0.1l-0.2,0.6l-0.8-0.2
			c-0.1-0.1-0.1-0.2-0.2-0.4c0-0.1,0-0.2,0-0.3c0-0.1,0.1-0.3,0.2-0.4c0.1-0.1,0.3-0.2,0.5-0.2c0.2,0,0.4,0,0.6,0.1
			c0.2,0.1,0.4,0.1,0.6,0.3c0.1,0.1,0.3,0.2,0.3,0.4c0.1,0.1,0.1,0.3,0,0.4c0,0.1-0.1,0.2-0.2,0.3c-0.1,0.1-0.2,0.1-0.3,0.1
			c-0.1,0-0.3,0-0.4,0v-0.2c0.1,0,0.2,0,0.3,0c0.1,0,0.1,0,0.2-0.1c0.1-0.1,0.1-0.1,0.1-0.2c0-0.1,0-0.2,0-0.2
			c0-0.1-0.1-0.1-0.1-0.2c-0.1-0.1-0.1-0.1-0.2-0.1c-0.1-0.1-0.3-0.1-0.4-0.2c-0.2-0.1-0.3-0.1-0.5-0.1c-0.1,0-0.2,0-0.3,0.1
			c-0.1,0.1-0.1,0.1-0.2,0.2c0,0.1,0,0.2,0,0.3c0,0.1,0.1,0.2,0.1,0.2l0.4,0.1L37.5,25.7z M36.2,26.8l0.9,0.4l1.4-0.1l-0.1,0.2h-0.7
			h-0.4c0.1,0.1,0.2,0.2,0.3,0.3l0.5,0.5L38,28.4l-1-1.1L36.2,27L36.2,26.8z"/>
		<line class="st0" x1="54" y1="6.5" x2="54" y2="36.1"/>
		<path d="M108.5,9.2c0.3,0.1,0.6,0.3,0.9,0.5c0.2,0.1,0.4,0.4,0.4,0.6c0,0.2-0.1,0.4-0.2,0.5c-0.3,0.2-0.6,0.2-0.9,0.2
			c-0.6,0-1.1-0.1-1.7-0.4H107v1.2l0,0c0.6,0.2,1.2,0.3,1.8,0.3c0.6,0,1.2-0.1,1.8-0.4c0.5-0.3,0.7-0.9,0.7-1.5
			c0-0.4-0.2-0.9-0.5-1.2c-0.3-0.3-0.7-0.6-1.2-0.8c-0.3-0.1-0.6-0.3-0.8-0.5c-0.2-0.1-0.3-0.3-0.3-0.6c0-0.5,0.3-0.7,1.1-0.7
			c0.5,0,1,0.1,1.4,0.3h0.1V5.7l0,0c-0.5-0.1-1-0.2-1.5-0.2c-0.6,0-1.2,0.1-1.7,0.4c-0.4,0.3-0.7,0.9-0.6,1.4
			C107,8.1,107.5,8.8,108.5,9.2z"/>
		<path d="M116.8,11.9L116.8,11.9v-1.2l0,0c-0.4,0.1-0.8,0.2-1.2,0.2c-0.6,0.1-1.1-0.1-1.5-0.5c-0.3-0.5-0.5-1-0.4-1.6
			c-0.1-0.6,0.1-1.2,0.5-1.7c0.4-0.4,0.9-0.6,1.5-0.5c0.4,0,0.8,0.1,1.2,0.2h0.1V5.7l0,0c-0.4-0.1-0.8-0.2-1.2-0.2
			c-2.2,0-3.3,1.1-3.3,3.4c-0.1,0.9,0.2,1.8,0.8,2.5c0.7,0.6,1.6,0.8,2.5,0.8C116,12.1,116.4,12.1,116.8,11.9z"/>
		<polygon points="122.1,8.2 119.6,8.2 119.6,5.6 118.2,5.6 118.2,12 119.6,12 119.6,9.3 122.1,9.3 122.1,12 123.4,12 123.4,5.6 
			122.1,5.6 		"/>
		<path d="M130,11.3c0.6-0.7,0.8-1.6,0.8-2.5c0.1-0.9-0.2-1.7-0.7-2.4c-0.6-0.6-1.3-0.9-2.2-0.9c-0.8-0.1-1.7,0.3-2.2,0.9
			c-0.6,0.7-0.9,1.6-0.8,2.5c-0.1,0.9,0.2,1.7,0.8,2.4c0.6,0.6,1.4,0.9,2.2,0.9C128.6,12.2,129.4,11.9,130,11.3z M129.4,8.8
			c0.1,0.6-0.1,1.3-0.5,1.8c-0.3,0.3-0.7,0.4-1.1,0.4c-1.1,0-1.6-0.7-1.6-2.2c0-0.6,0.1-1.1,0.4-1.6c0.3-0.4,0.8-0.6,1.3-0.6
			c0.5,0,0.9,0.2,1.2,0.6C129.3,7.7,129.5,8.2,129.4,8.8L129.4,8.8z"/>
		<path d="M137.1,11.3c0.6-0.7,0.8-1.6,0.8-2.5c0.1-0.9-0.2-1.7-0.7-2.4c-0.5-0.6-1.3-0.9-2.1-0.9c-0.8-0.1-1.7,0.3-2.2,0.9
			c-0.6,0.7-0.9,1.6-0.8,2.5c-0.1,0.9,0.2,1.7,0.8,2.4c0.6,0.6,1.4,0.9,2.2,0.9C135.7,12.2,136.5,11.8,137.1,11.3z M133.7,7.2
			c0.3-0.4,0.8-0.6,1.3-0.6c0.5,0,0.9,0.2,1.2,0.6c0.3,0.5,0.4,1.1,0.4,1.6c0.1,0.6-0.1,1.3-0.5,1.8c-0.3,0.3-0.7,0.4-1.1,0.4
			c-1.1,0-1.6-0.7-1.6-2.2C133.2,8.2,133.4,7.7,133.7,7.2z"/>
		<polygon points="140.6,5.6 139.3,5.6 139.3,12 143,12 143,10.9 140.6,10.9 		"/>
		<path d="M148.8,5.5c-0.8-0.1-1.7,0.3-2.2,0.9c-0.6,0.7-0.9,1.6-0.8,2.5c0,0.9,0.2,1.7,0.8,2.4c0.6,0.6,1.4,0.9,2.2,0.9
			c0.8,0.1,1.6-0.3,2.2-0.9c0.6-0.7,0.9-1.6,0.8-2.5c0.1-0.9-0.2-1.7-0.7-2.4C150.4,5.8,149.6,5.4,148.8,5.5z M147.5,7.2
			c0.3-0.4,0.8-0.6,1.2-0.6c0.5,0,0.9,0.2,1.2,0.6c0.3,0.5,0.4,1.1,0.4,1.6c0.1,0.6-0.1,1.3-0.5,1.8c-0.3,0.3-0.7,0.4-1.1,0.4
			c-1.1,0-1.6-0.7-1.6-2.2C147,8.2,147.2,7.7,147.5,7.2z"/>
		<polygon points="156.7,6.7 156.7,5.6 153.1,5.6 153.1,12 154.4,12 154.4,9.4 156.5,9.4 156.5,8.4 154.4,8.4 154.4,6.7 		"/>
		<path d="M109.3,17.5H107v6.4h2.4c0.8,0.1,1.6-0.2,2.2-0.7c0.5-0.7,0.7-1.6,0.6-2.5c0.1-0.8-0.1-1.7-0.6-2.4
			C111,17.7,110.2,17.4,109.3,17.5z M110.8,20.7c0.1,0.6-0.1,1.2-0.3,1.7c-0.3,0.3-0.7,0.5-1.2,0.4h-1v-4.2h1c0.4,0,0.8,0.1,1.1,0.3
			C110.7,19.5,110.8,20.1,110.8,20.7z"/>
		<polygon points="114.9,21.2 117,21.2 117,20.2 114.9,20.2 114.9,18.6 117.2,18.6 117.2,17.5 113.6,17.5 113.6,23.9 117.3,23.9 
			117.3,22.8 114.9,22.8 		"/>
		<path d="M120.9,20.2c-0.3-0.1-0.6-0.3-0.8-0.5c-0.2-0.1-0.3-0.3-0.3-0.6c0-0.5,0.3-0.7,1.1-0.7c0.5,0,1,0.1,1.4,0.3h0.1v-1.1l0,0
			c-0.5-0.1-1-0.2-1.5-0.2c-0.6,0-1.2,0.1-1.7,0.4c-0.5,0.3-0.7,0.9-0.7,1.4c0,0.8,0.5,1.4,1.5,1.9c0.3,0.1,0.7,0.3,1,0.5
			c0.2,0.1,0.4,0.4,0.4,0.6c0,0.2-0.1,0.4-0.2,0.5c-0.3,0.1-0.6,0.2-0.9,0.2c-0.6,0-1.1-0.1-1.7-0.4h-0.1v1.2l0,0
			c0.6,0.2,1.2,0.3,1.8,0.3c0.6,0,1.2-0.1,1.8-0.4c0.5-0.3,0.7-0.9,0.7-1.5c0-0.5-0.2-0.9-0.5-1.2C121.8,20.7,121.4,20.4,120.9,20.2
			z"/>
		<rect x="124" y="17.5" width="1.3" height="6.4"/>
		<path d="M129.4,21.3h1.3v1c0,0.2-0.1,0.3-0.2,0.4c-0.3,0.1-0.5,0.2-0.8,0.1c-0.5,0-0.9-0.1-1.2-0.5c-0.3-0.5-0.4-1.1-0.4-1.7
			c0-0.6,0.1-1.2,0.4-1.7c0.3-0.4,0.8-0.5,1.3-0.5c0.6,0,1.2,0.1,1.7,0.4h0.1v-1.1l0,0c-0.6-0.2-1.2-0.3-1.8-0.3
			c-0.9-0.1-1.7,0.2-2.3,0.9c-0.5,0.7-0.8,1.6-0.8,2.5c-0.1,0.9,0.2,1.8,0.7,2.5c0.6,0.6,1.4,0.9,2.3,0.8c0.6,0,1.2-0.1,1.7-0.4
			c0.4-0.3,0.6-0.8,0.6-1.3v-2.1h-2.5L129.4,21.3z"/>
		<path d="M137.5,21.3c0,0.2,0,0.4,0,0.5c-0.1-0.1-0.1-0.2-0.2-0.3l-2.5-4h-1.4V24h1.3v-3.8c0-0.2,0-0.4,0-0.6
			c0,0.1,0.1,0.2,0.1,0.3l2.6,4.1h1.4v-6.4h-1.3V21.3z"/>
		<path d="M86.2,0.7l11.7,6.7c1.7,0.9,2.7,2.7,2.7,4.7v18.4c0,1.9-1,3.7-2.7,4.7l-11.7,6.7c-1.7,1-3.7,1-5.4,0l-11.7-6.7
			c-1.7-1-2.7-2.7-2.7-4.7V12.1c0-1.9,1-3.7,2.7-4.7l11.7-6.7C82.5-0.2,84.5-0.2,86.2,0.7 M81.8,2.5L70.2,9.2
			c-1,0.6-1.7,1.7-1.7,2.9v18.4c0,1.2,0.6,2.3,1.7,2.9l11.7,6.7c1,0.6,2.3,0.6,3.3,0l11.7-6.7c1.1-0.6,1.7-1.7,1.7-2.9V12.1
			c0-1.2-0.6-2.3-1.7-2.9L85.1,2.5C84.1,1.9,82.8,1.9,81.8,2.5z M79.1,24.1l-0.4,0.2c-0.8,0.3-1.2,1-1.1,1.8v1.4
			c0,0.3,0.2,0.5,0.5,0.4c0.1,0,0.1,0,0.2-0.1l3-1.7c0.8-0.4,1.3-1.2,1.2-2.1v-4.4c0.1-0.9-0.4-1.7-1.2-2.1L76.4,15
			c-0.2-0.1-0.5,0-0.6,0.2c0,0.1-0.1,0.1-0.1,0.2v1.4c-0.1,0.8,0.3,1.6,1.1,1.8l2.3,1.3c0.3,0.1,0.5,0.4,0.4,0.8v2.7
			C79.5,23.7,79.4,24,79.1,24.1z M78.4,9.1l-5,2.9c-0.8,0.3-1.3,1.1-1.1,1.9v1.4c0,0.3,0.2,0.5,0.5,0.4c0.1,0,0.1,0,0.2-0.1l6.2-3.6
			c0.3-0.2,0.6-0.2,0.9,0l3.3,1.8c0.2,0.1,0.5,0,0.6-0.2c0-0.1,0.1-0.1,0.1-0.2v-1.3c0.1-0.8-0.3-1.6-1.1-1.9l-2.1-1.2
			C80,8.7,79.1,8.7,78.4,9.1L78.4,9.1z M85.5,25.8c-0.1,0.8,0.3,1.6,1.1,1.9l1.2,0.7c0.2,0.1,0.5,0,0.6-0.2c0-0.1,0.1-0.1,0.1-0.2
			V17.3c0.1-0.8-0.3-1.6-1.1-1.9l-1.2-0.7c-0.2-0.1-0.5,0-0.6,0.2c0,0.1-0.1,0.1-0.1,0.2V25.8z M91,28.6l-4.4,2.5
			c-0.8,0.3-1.2,1.1-1.1,1.9v1.4c0,0.3,0.2,0.5,0.5,0.4c0.1,0,0.1,0,0.2-0.1l7-4c0.8-0.4,1.3-1.2,1.2-2.1V14
			c0.1-0.9-0.4-1.7-1.2-2.1l-7-4c-0.2-0.1-0.5,0-0.6,0.2c0,0.1,0,0.1,0,0.2v1.3c-0.1,0.8,0.3,1.6,1.1,1.8L91,14
			c0.3,0.1,0.5,0.4,0.4,0.8v13.1C91.5,28.1,91.3,28.4,91,28.6z M72.6,21.7c-0.1-0.8,0.3-1.6,1.1-1.9l1.2-0.7c0.2-0.1,0.5,0,0.6,0.2
			c0,0.1,0,0.1,0,0.2v8.3c0,0.3,0.2,0.6,0.4,0.8l4.4,2.5c0.8,0.3,1.2,1.1,1.1,1.9v1.4c0,0.3-0.2,0.5-0.5,0.4c-0.1,0-0.1,0-0.2-0.1
			l-7-4c-0.8-0.4-1.3-1.2-1.2-2.1L72.6,21.7z"/>
		<path d="M128.9,35.9c0,0.3-0.1,0.4-0.4,0.4h-0.9l0.1,0.9h1.3c0.7,0,0.9-0.3,0.9-0.9v-6.8l-1-0.1L128.9,35.9z"/>
		<path d="M128.3,35.2v-5.1l-1-0.1v1.5c-0.6-0.5-1.1-1-1.7-1.6l0.2-0.3l-0.9-0.4c-0.7,1-1.5,2-2.4,2.8l0.7,0.7l0.2-0.1V36
			c0,0.7,0.3,1,1.1,1h1.8c0.5,0,0.9-0.3,0.9-0.7c0,0,0-0.1,0-0.1v-0.9l-1-0.2v0.6c0,0.2-0.1,0.4-0.3,0.4h-1.1
			c-0.3,0-0.3-0.1-0.3-0.4v-2.6h1.3v0.8c0,0.3-0.1,0.3-0.3,0.3h-0.5l0.1,0.8h0.7c0.8,0,0.9-0.2,0.9-0.8v-1.9l-0.8-0.3
			c-0.1,0.1-0.3,0.2-0.5,0.2h-1.4c0.5-0.5,0.9-0.9,1.3-1.5c0.5,0.6,1,1.1,1.6,1.7l0.6-0.6v3.5H128.3z"/>
		<path d="M166.1,34.4c0-0.7-0.2-1.3-0.6-1.8l0.5-1.9v-0.9l-0.9-0.3c-0.2,0.1-0.4,0.2-0.6,0.2h-1v7.5h0.9v-2.1l0.1,0.7h0.5
			C166,35.7,166.1,35.1,166.1,34.4z M164.9,34.8h-0.3v-4.1h0.6l-0.5,2.1c0.4,0.5,0.6,1.1,0.6,1.7C165.2,34.7,165.1,34.8,164.9,34.8
			L164.9,34.8z"/>
		<path d="M170.1,35v1c0,0.1,0,0.2-0.2,0.2h-0.3c-0.1,0-0.1-0.1-0.1-0.2v-1.8h1.1v-0.9h-4.4v0.9h0.8v0.1c0,1-0.6,1.9-1.5,2.3
			l0.7,0.7c1.1-0.5,1.8-1.7,1.8-2.9v-0.2h0.6v2c0,0.6,0.3,0.8,0.9,0.8h0.7c0.5,0,0.8-0.2,0.8-0.8v-1.1L170.1,35z"/>
		<path d="M156.5,31.8h5v1h1V31l-0.9-0.3c-0.1,0.1-0.3,0.2-0.4,0.2c0.2-0.4,0.5-0.7,0.7-1.1l-1-0.5c-0.3,0.5-0.6,1-1,1.6h-0.6
			l0.4-0.2c-0.3-0.5-0.6-1-0.9-1.4l-0.9,0.4c0.2,0.4,0.4,0.8,0.7,1.2h-1.1l0.3-0.2c-0.3-0.5-0.6-1-0.9-1.4l-0.9,0.5
			c0.2,0.4,0.4,0.8,0.7,1.1h-1.2v1.9h1L156.5,31.8z"/>
		<path d="M145.9,33.7v-0.8l-1-0.3c-0.1,0.1-0.3,0.2-0.5,0.2h-2.4c0.7-0.4,1.1-1.1,1.1-1.9v-0.3h1.2v1c0,0.7,0.3,0.9,1,0.9h0.9
			l0.1-0.9h-0.8c-0.2,0-0.2-0.1-0.2-0.2v-1.5l-1-0.3c-0.2,0.1-0.4,0.2-0.6,0.2h-1.6v0.9c0,0.7-0.3,1.3-0.9,1.6l0.6,0.6h-0.3v0.9h0.8
			l-0.6,0.3c0.3,0.6,0.7,1.1,1.2,1.5c-0.6,0.4-1.3,0.7-1.9,0.9l0.5,0.8c0.8-0.3,1.5-0.6,2.2-1.1c0.7,0.5,1.5,0.9,2.3,1.1l0.5-0.9
			c-0.7-0.2-1.3-0.5-1.9-0.9C145.2,35.1,145.6,34.4,145.9,33.7z M142.7,33.7h2.1c-0.2,0.5-0.6,0.9-1,1.3
			C143.4,34.6,143,34.2,142.7,33.7L142.7,33.7z"/>
		<path d="M141.6,34.8l-0.6,0.4v-3.1l-0.9-0.3c-0.2,0.1-0.4,0.2-0.6,0.2H139v1h1v2.5c0,0.3-0.1,0.6-0.4,0.8l0.7,0.8l1.8-1.6
			L141.6,34.8z"/>
		<path d="M135.7,36c0,0.2-0.1,0.3-0.3,0.3h-1.6c-0.2,0-0.3-0.1-0.3-0.3v-0.9l-1-0.1v1.1c0,0.8,0.2,1,1,1h2.1c0.6,0,1-0.2,1-0.8
			v-0.8l-1-0.2L135.7,36z"/>
		<path d="M130.8,36.5l0.9,0.5c0.3-0.5,0.6-1.1,0.9-1.7l-0.8-0.3C131.4,35.5,131.1,36,130.8,36.5z"/>
		<path d="M119.8,30.9c0.7-0.1,1.5-0.3,2.2-0.5l-0.4-0.9c-0.9,0.3-1.8,0.5-2.8,0.6v3.2c0,0.8-0.1,1.6-0.3,2.3
			c-0.2-0.3-0.4-0.7-0.6-1l-0.7,0.3v-0.4h1.3v-0.9h-1.3V33h1.4v-0.9h-0.8c0.1-0.3,0.3-0.6,0.4-1l-0.5-0.2h0.9v-0.9h-1.4v-0.7l-1-0.1
			v0.9h-1.3V31h0.8l-0.5,0.2l0.4,0.9h-0.9V33h1.6v0.6h-1.4v0.9h1.4V36c0,0.2-0.1,0.2-0.2,0.2h-0.5c0.2-0.4,0.4-0.9,0.6-1.3l-0.8-0.3
			c-0.2,0.6-0.5,1.2-0.9,1.8l0.9,0.4l0.3-0.5l0.1,0.9h0.7c0.7,0,0.9-0.2,0.9-0.9v-1.1c0.2,0.3,0.3,0.7,0.6,1.1l0.6-0.3
			c-0.1,0.3-0.3,0.7-0.5,1l0.9,0.4c0.7-1.2,1.1-2.5,1-3.9v-0.3h0.7v4.1h1v-4.1h0.7v-0.9h-2.4L119.8,30.9z M116.2,32.1l0.4-0.2
			c-0.2-0.3-0.3-0.6-0.5-0.9h1.2c-0.1,0.4-0.3,0.8-0.5,1.1H116.2z"/>
		<path d="M112.7,35.9c0,0.3-0.1,0.4-0.4,0.4h-0.9l0.1,0.9h1.2c0.7,0,0.9-0.3,0.9-0.9v-6.8l-1-0.1L112.7,35.9z"/>
		<path d="M112,35.2v-5.1l-1-0.1v1.5c-0.6-0.5-1.1-1-1.6-1.6c0.1-0.1,0.1-0.2,0.2-0.3l-0.9-0.4c-0.7,1-1.5,2-2.4,2.8l0.7,0.7
			l0.2-0.1V36c0,0.7,0.3,1,1.1,1h1.8c0.5,0,0.9-0.3,0.9-0.7c0,0,0-0.1,0-0.1v-0.9l-1-0.2v0.6c0,0.2-0.1,0.4-0.3,0.4h-1.2
			c-0.3,0-0.3-0.1-0.3-0.4v-2.6h1.3v0.8c0,0.3-0.1,0.3-0.3,0.3h-0.6l0.1,0.8h0.7c0.7,0,0.9-0.2,0.9-0.8v-1.9l-0.8-0.3
			c-0.1,0.1-0.3,0.2-0.5,0.2h-1.4c0.5-0.5,0.9-0.9,1.3-1.5c0.5,0.6,1,1.1,1.6,1.7l0.6-0.6v3.5H112z"/>
		<path d="M166.9,32.7h3.1v-0.8h0.7v-1.7l-0.9-0.3c-0.2,0.1-0.4,0.2-0.6,0.2h-0.3v-0.8l-1-0.1v0.9h-1.7v1.8h0.7V32.7z M169.7,31.1
			v0.7h-2.6v-0.7H169.7z"/>
		<path d="M141.4,30.9c-0.5-0.6-0.8-1-1.2-1.5l-0.8,0.5c0.4,0.6,0.7,1,1.2,1.6L141.4,30.9z"/>
		<path d="M138.3,31.2h-1.8c0.1-0.1,0.1-0.2,0.2-0.4l-0.5-0.1h1.6V30h-2.7v-0.6l-1.1-0.1V30h-2.7v0.8h1.6l-0.4,0.1
			c0.1,0.1,0.1,0.2,0.2,0.4h-1.8V32h7.4V31.2z M133.6,30.7h2c-0.1,0.2-0.2,0.3-0.3,0.5H134C133.8,31.1,133.7,30.9,133.6,30.7z"/>
		<path d="M136.7,35.4c0.2,0.5,0.4,1,0.8,1.6l0.9-0.4c-0.3-0.6-0.5-1-0.8-1.6L136.7,35.4z"/>
		<path d="M149.3,35.2v-3.2l-0.9-0.3c-0.2,0.1-0.4,0.2-0.6,0.2h-0.6v1h1v2.6c0,0.3-0.1,0.6-0.4,0.8l0.7,0.8l2.1-1.8l-0.6-0.7
			L149.3,35.2z"/>
		<polygon points="152.8,29.4 151.7,29.3 151.7,32 149.7,32 149.7,33.1 151.7,33.1 151.7,37.2 152.8,37.2 152.8,33.1 154.7,33.1 
			154.7,32 152.8,32 		"/>
		<path d="M161.2,33.3v-0.8l-0.9-0.3c-0.1,0.1-0.3,0.2-0.5,0.2h-3.1v0.9h2.9c-0.4,0.2-0.7,0.4-1.1,0.6v0.3h-3.2v1h3.2V36
			c0,0.2-0.1,0.3-0.3,0.3h-1l0.1,1h1.2c0.8,0,1-0.3,1-0.9v-1h3v-1h-2.9C160.2,34,160.7,33.7,161.2,33.3z"/>
		<path d="M149.9,30.8c-0.5-0.6-0.9-1.1-1.2-1.5l-0.8,0.5c0.4,0.5,0.8,1.1,1.2,1.7L149.9,30.8z"/>
		<path d="M137.4,32.4l-0.9-0.3c-0.2,0.1-0.4,0.2-0.6,0.2h-4.2v2.6h2.6l-0.4,0.2c0.2,0.3,0.4,0.7,0.6,1l0.9-0.5
			c-0.2-0.3-0.3-0.5-0.5-0.8h2.4V32.4z M132.7,33h3.7v0.3h-3.7V33z M136.5,34.2h-3.7v-0.3h3.7V34.2z"/>
	</g>
</g>
</svg>
