<svg id="Ebene_1" data-name="Ebene 1" xmlns="http://www.w3.org/2000/svg" viewBox="0 0 155.14 150"><defs><style>.cls-1{fill:none;}</style></defs><title>favicon-iv</title><rect class="cls-1" x="5.14" width="150" height="150"/><path d="M13,79h9.1V22.92H13V21.77H31.45L46.62,65.88h.16L62,21.77H80.07v1.15H71V79h9.1v1.15H53.67V79h9.1V23.41h-.16L43,80.23,23.49,24h-.16V79h9.1v1.15H13Z" transform="translate(5.07 0.36)"/><path d="M70,127h9.1V70.92H70V69.77H88.45l15.17,44.11h.16L119,69.77h18.12v1.15H128V127h9.1v1.15h-26.4V127h9.1V71.41h-.16L100,128.23,80.49,72h-.16v55h9.1v1.15H70Z" transform="translate(5.07 0.36)"/><text x="5.07" y="0.36"></text></svg>
